<svg xmlns="http://www.w3.org/2000/svg" x="0px" y="0px" viewBox="0 0 864 864" enable-background="new 0 0 864 864"><g class="ls0"><g><path d="M189.2,653.7l45.8-45.8c-55.1-30.7-89.8-88.8-89.8-153V334l59.6,55.5l46.2,43.1l46.2-43.1l59.8-55.7v152v174.8V729l63,26.7 v-68.4V305.8v-30.7V251v-8.3h-7.7h-50l-5.3,4.9l-62.3,58.1L251,346.5l-43.7-40.7l-62.1-57.9l-5.5-5.1h-50h-7.5v8.1v24.4v179.7 C82.2,535.9,123.2,610.2,189.2,653.7z"/></g><g><path d="M724.3,242.8l-5.5,5.1l-62.1,57.9L613,346.5l-43.7-40.7L507,247.7l-5.3-4.9h-50H444v8.3v24.1v30.7v381.5v68.4l63-26.7 v-68.4V485.8v-152l59.8,55.7l46.2,43.1l46.2-43.1l59.6-55.5v121c0,64.1-34.7,122.3-89.8,153l45.8,45.8c66-43.5,107-117.8,107-198.8 V275.2v-24.4v-8.1h-7.5H724.3z"/></g></g><g class="fs0"><g><path d="M634.7,159c-88.1,0-164.6-53.8-202.7-132.5C393.9,105.2,317.5,159,229.3,159c-56.1,0-107.4-21.8-147.1-57.9v112h699.6v-112 C742.1,137.2,690.7,159,634.7,159z"/></g></g></svg>